<svg width="202" height="274" viewBox="0 0 202 274" fill="none" xmlns="http://www.w3.org/2000/svg">
<path d="M243.055 194.43L218.932 192.019L195.209 188.453L174.184 185.099L155.755 183.112L138.264 182.515L124.671 180.618L112.989 178.253L99.7394 178.397L87.5561 176.553L76.3029 175.548L64.5202 175.344L53.2455 174.974L42.6362 174.46L32.363 173.939" stroke="#B7B7B7" stroke-width="1.08501" stroke-linecap="round" stroke-linejoin="round"/>
<path d="M233.734 209.957L210.226 205.763L189.115 201.849L170.944 200.981L154.353 199.311L137.77 197.951L122.79 199.764L109.712 196.908L99.1961 192.541L86.5406 192.163L74.9941 189.829L63.1328 188.824L50.6562 188.703L38.287 188.627L26.4757 188.34" stroke="#B7B7B7" stroke-width="1.08501" stroke-linecap="round" stroke-linejoin="round"/>
<path d="M220.184 2.68494L217.645 26.5983L214.239 50.5267L210.405 73.8432L205.891 96.6307L202.886 116.804L206.191 133.056L216.321 150.66L223.74 173.01L218.932 192.02L210.226 205.763L204.317 218.691L200.675 231.762L198.78 245.845L197.964 261.16" stroke="#B7B7B7" stroke-width="1.08501" stroke-linecap="round" stroke-linejoin="round"/>
<path d="M225.242 222.748L204.316 218.69L185.587 215.479L169.498 217.912L153.852 216.771L138.028 212.737L122.947 217.134L106.643 216.839L95.9192 209.563L84.0721 208.898L73.2839 205.778L62.6387 202.93L50.9276 201.766L38.2365 201.653L25.2377 201.804" stroke="#B7B7B7" stroke-width="1.08501" stroke-linecap="round" stroke-linejoin="round"/>
<path d="M201.376 1L200.418 23.0622L198.214 46.4693L195.152 69.8991L191.89 92.7395L188.685 114.454L188.328 133.305L197.084 150.487L201.963 172.33L195.21 188.453L189.114 201.849L185.588 215.48L184.064 230.757L183.663 247.598L183.699 265.528" stroke="#B7B7B7" stroke-width="1.08501" stroke-linecap="round" stroke-linejoin="round"/>
<path d="M49.5826 259.793L54.9695 238.849L59.87 219.522L62.6386 202.93L63.1322 188.824L64.5201 175.345L70.0001 161.45L68.5049 149.293L53.4672 134.001L47.9872 117.242L54.2756 105.66L61.587 95.4143L66.0797 83.6805L75.9164 79.1245L83.8216 71.8485L93.1505 65.6605L105.198 60.8552L122.568 55.5512L142.127 57.8481L160.326 54.0099L180.014 46.137L198.214 46.4694L214.239 50.5267L228.79 55.0299" stroke="#B7B7B7" stroke-width="1.08501" stroke-linecap="round" stroke-linejoin="round"/>
<path d="M244 173.048L223.74 173.01L201.963 172.33L179.249 170.146L159.039 168.711L141.812 166.852L126.539 164.155L113.633 163.414L102.093 162.659L91.3052 162.138L80.4312 161.813L70.0006 161.45L59.4914 161.17L48.7962 160.974L37.9221 160.823" stroke="#B7B7B7" stroke-width="1.08501" stroke-linecap="round" stroke-linejoin="round"/>
<path d="M40.7475 253.394L46.3062 233.417L49.9762 216.175L50.9276 201.767L50.6558 188.703L53.2455 174.975L59.491 161.171L56.8082 149.18L41.513 134.273L32.363 116.736L35.89 102.948L44.8324 93.4426L52.5158 84.1947L55.2487 71.8866L63.6975 66.424L70.0932 57.3497L77.9197 48.2454L89.4948 43.4098L104.253 41.0222L122.918 39.2618L142.291 40.6217L160.577 35.2195L180.415 25.9565L200.417 23.0626L217.644 26.5987L233.176 31.1622" stroke="#B7B7B7" stroke-width="1.08501" stroke-linecap="round" stroke-linejoin="round"/>
<path d="M6.93079 87.1709L26.2752 90.2537L36.1048 82.0332L52.5161 84.1941L66.08 83.6803" stroke="#B7B7B7" stroke-width="1.08501" stroke-linecap="round" stroke-linejoin="round"/>
<path d="M219.648 235.495L200.675 231.762L184.064 230.757L169.183 236.008L153.402 233.983L138.521 228.664L123.741 232.888L105.685 234.792L92.4068 228.536L80.2451 227.266L69.3566 224.123L59.8704 219.522L49.9765 216.175L38.7733 214.656L26.3325 214.362" stroke="#B7B7B7" stroke-width="1.08501" stroke-linecap="round" stroke-linejoin="round"/>
<path d="M235.565 150.842L216.321 150.661L197.084 150.487L177.847 150.306L158.896 150.132L142.606 149.981L128.77 149.852L115.264 149.724L103.574 149.618L95.1394 134.99L96.8707 118.504L101.564 106.423L112.602 104.61L123.369 92.2336L141.018 93.7598L158.831 93.1402L175.429 90.662L191.89 92.7398L205.89 96.6309L219.154 99.7212" stroke="#B7B7B7" stroke-width="1.08501" stroke-linecap="round" stroke-linejoin="round"/>
<path d="M60.8359 263.918L64.6776 244.04L69.3563 224.123L73.2838 205.779L74.9936 189.829L76.3028 175.549L80.4307 161.813L80.1945 149.399L65.9939 133.721L65.3214 118.995L70.6583 107.088L76.5747 95.2559L75.9165 79.1248L70.0931 57.3497L63.4685 32.8848" stroke="#B7B7B7" stroke-width="1.08501" stroke-linecap="round" stroke-linejoin="round"/>
<path d="M17.6332 78.5125L36.1048 82.0334" stroke="#B7B7B7" stroke-width="1.08501" stroke-linecap="round" stroke-linejoin="round"/>
<path d="M180.479 6.6134L180.415 25.9557L180.014 46.1366L178.269 68.1762L175.429 90.6614L173.468 111.477L172.402 132.028L177.847 150.305L179.249 170.146L174.184 185.098L170.943 200.98L169.498 217.912L169.183 236.008L169.033 254.458L168.918 273" stroke="#B7B7B7" stroke-width="1.08501" stroke-linecap="round" stroke-linejoin="round"/>
<path d="M101.564 106.423L98.2302 87.8361L93.1509 65.6606L89.4952 43.4095L87.7067 22.7677" stroke="#B7B7B7" stroke-width="1.08501" stroke-linecap="round" stroke-linejoin="round"/>
<path d="M216.092 248.573L198.779 245.845L183.663 247.598L169.033 254.459L153.201 251.557L138.879 245.86L124.313 248.392L106.106 250.386L90.2817 247.205L76.8608 246.057L64.6775 244.04L54.9696 238.849L46.3061 233.416L37.0131 229.608L26.3464 227.682" stroke="#B7B7B7" stroke-width="1.08501" stroke-linecap="round" stroke-linejoin="round"/>
<path d="M160.713 16.7537L160.577 35.2194L160.327 54.0102L160.105 72.8008L158.832 93.1403L156.478 113.374L155.72 131.485L158.896 150.132L159.039 168.711L155.755 183.112L154.353 199.311L153.852 216.772L153.402 233.983L153.201 251.558L153.294 269.978" stroke="#B7B7B7" stroke-width="1.08501" stroke-linecap="round" stroke-linejoin="round"/>
<path d="M55.2487 71.8863L51.6503 53.8512" stroke="#B7B7B7" stroke-width="1.08501" stroke-linecap="round" stroke-linejoin="round"/>
<path d="M32.6348 247.432L37.0131 229.608L38.7729 214.656L38.2364 201.653L38.2864 188.627L42.6361 174.46L48.7957 160.974L45.1185 149.074L29.8018 134.484L18.198 116.834L17.733 100.99L26.2749 90.2537L44.8324 93.4421L61.587 95.4141L76.5746 95.2555L88.5004 92.2634L98.2298 87.8359L108.095 82.7208L122.41 72.6795L141.712 75.5581L160.105 72.8004L178.269 68.1764L195.152 69.899L210.404 73.8431L223.568 78.5199" stroke="#B7B7B7" stroke-width="1.08501" stroke-linecap="round" stroke-linejoin="round"/>
<path d="M74.6793 264.244L76.8613 246.057L80.2451 227.267L84.0725 208.899L86.5406 192.164L87.5565 176.554L91.3052 162.138L91.8847 149.512L79.9446 133.835L80.9677 120.038L86.698 106.68L88.5009 92.2639L83.8221 71.8488L77.9201 48.2453L73.456 24.7173" stroke="#B7B7B7" stroke-width="1.08501" stroke-linecap="round" stroke-linejoin="round"/>
<path d="M1.00012 100.091L17.7333 100.99L35.8902 102.947L54.2759 105.66L70.6586 107.088L86.6978 106.679L101.564 106.423" stroke="#B7B7B7" stroke-width="1.08501" stroke-linecap="round" stroke-linejoin="round"/>
<path d="M66.08 83.6802L63.6978 66.4233L57.0088 43.802" stroke="#B7B7B7" stroke-width="1.08501" stroke-linecap="round" stroke-linejoin="round"/>
<path d="M114.069 121.813L112.602 104.609L108.095 82.7209L105.198 60.855L104.254 41.0217L104.383 23.0697" stroke="#B7B7B7" stroke-width="1.08501" stroke-linecap="round" stroke-linejoin="round"/>
<path d="M89.7095 264.243L90.2819 247.205L92.4066 228.536L95.9192 209.564L99.1957 192.541L99.7394 178.397L102.093 162.659L103.574 149.618" stroke="#B7B7B7" stroke-width="1.08501" stroke-linecap="round" stroke-linejoin="round"/>
<path d="M142.327 23.7426L142.291 40.6216L142.127 57.8483L141.712 75.5585L141.018 93.7599L140.038 113.472L141.003 135.142L142.606 149.981L141.812 166.852L138.264 182.515L137.77 197.951L138.027 212.737L138.521 228.664L138.879 245.861L139.065 263.926" stroke="#B7B7B7" stroke-width="1.08501" stroke-linecap="round" stroke-linejoin="round"/>
<path d="M213.91 262.165L197.963 261.16L183.698 265.527L168.918 273L153.294 269.978L139.065 263.926L124.592 264.205L106.95 264.651L89.7093 264.243H74.6787L60.8358 263.918L49.5825 259.793L40.7473 253.393L32.6347 247.432L23.8138 243.231" stroke="#B7B7B7" stroke-width="1.08501" stroke-linecap="round" stroke-linejoin="round"/>
<path d="M27.4272 71.0101L43.0158 72.967L55.2491 71.8865" stroke="#B7B7B7" stroke-width="1.08501" stroke-linecap="round" stroke-linejoin="round"/>
<path d="M124.592 264.205L124.313 248.392L123.741 232.888L122.947 217.134L122.79 199.764L124.671 180.618L126.538 164.155L128.77 149.852L126.674 134.159L126.839 114.832L123.369 92.2333L122.41 72.6795L122.568 55.551L122.918 39.2613L123.326 23.4172" stroke="#B7B7B7" stroke-width="1.08501" stroke-linecap="round" stroke-linejoin="round"/>
<path d="M23.8138 243.231L26.3463 227.682L26.332 214.361L25.2375 201.804L26.4751 188.34L32.3629 173.939L37.9215 160.822L33.4288 148.968" stroke="#B7B7B7" stroke-width="1.08501" stroke-linecap="round" stroke-linejoin="round"/>
<path d="M106.951 264.651L106.107 250.386L105.684 234.791L106.643 216.839L109.712 196.908L112.989 178.253L113.633 163.414L115.264 149.724L108.46 133.449L114.069 121.813L126.839 114.832L140.038 113.472L156.478 113.374L173.469 111.477L188.685 114.454L202.886 116.804L218.746 117.212" stroke="#B7B7B7" stroke-width="1.08501" stroke-linecap="round" stroke-linejoin="round"/>
<path d="M4.97729 117.152L18.1979 116.834L32.3628 116.736L47.9871 117.242L65.3212 118.995L80.967 120.038L96.8704 118.504L114.069 121.813" stroke="#B7B7B7" stroke-width="1.08501" stroke-linecap="round" stroke-linejoin="round"/>
<path d="M213.91 262.166L216.092 248.573L219.648 235.495L225.242 222.748L233.734 209.957L243.055 194.43L244 173.048L235.565 150.842L224.97 132.739L206.191 133.056L188.327 133.306L172.403 132.029L155.719 131.485L141.004 135.142L126.674 134.159L108.46 133.449L95.1394 134.991L79.9443 133.835L65.994 133.721L53.4674 134.001L41.5131 134.273L29.802 134.484L18.1911 134.628L4.97762 117.152L1 100.092L6.93065 87.1714L17.633 78.5128L27.4269 71.0102L33.0427 61.5808L44.1529 59.8883L51.6503 53.8514L57.0086 43.8026L63.4687 32.8848L73.4557 24.7173L87.7064 22.7679L104.382 23.0701L123.326 23.4176L142.327 23.7426L160.713 16.7537L180.479 6.61409L201.376 1.00037L220.184 2.68524L236.86 6.99943" stroke="#B7B7B7" stroke-width="1.08501" stroke-linecap="round" stroke-linejoin="round"/>
<path d="M103.574 149.618L91.8847 149.512L80.195 149.399L68.5054 149.293L56.8087 149.179L45.119 149.074L33.4294 148.968L18.1914 134.627" stroke="#B7B7B7" stroke-width="1.08501" stroke-linecap="round" stroke-linejoin="round"/>
<path d="M36.1049 82.0334L43.0157 72.9668L44.1532 59.8881" stroke="#B7B7B7" stroke-width="1.08501" stroke-linecap="round" stroke-linejoin="round"/>
</svg>
